<svg width="44" height="41" viewBox="0 0 44 41" fill="none" xmlns="http://www.w3.org/2000/svg">
<g filter="url(#filter0_d_119_27)">
<path d="M4 33H10.5455V13.2H4V33ZM40 14.85C40 13.035 38.5273 11.55 36.7273 11.55H26.4018L27.9564 4.0095L28.0055 3.4815C28.0055 2.805 27.7273 2.178 27.2855 1.7325L25.5509 0L14.7836 10.8735C14.1782 11.4675 13.8182 12.2925 13.8182 13.2V29.7C13.8182 31.515 15.2909 33 17.0909 33H31.8182C33.1764 33 34.3382 32.175 34.8291 30.987L39.7709 19.3545C39.9182 18.975 40 18.579 40 18.15V14.85Z" fill="white"/>
<path d="M25.9121 11.449L25.7882 12.05H26.4018H36.7273C38.2472 12.05 39.5 13.3072 39.5 14.85V18.15C39.5 18.51 39.4324 18.8425 39.3075 19.1665L34.3689 30.7915L34.3689 30.7915L34.367 30.796C33.951 31.8028 32.9678 32.5 31.8182 32.5H17.0909C15.571 32.5 14.3182 31.2428 14.3182 29.7V13.2C14.3182 12.4272 14.6238 11.7307 15.1338 11.2304L15.1338 11.2305L15.1389 11.2253L25.5529 0.708635L26.9304 2.08458C26.9307 2.0849 26.9311 2.08522 26.9314 2.08553C27.2786 2.43618 27.4994 2.92888 27.5053 3.45961L27.4611 3.93564L25.9121 11.449ZM10.0455 13.7V32.5H4.5V13.7H10.0455Z" stroke="#1B6AE1"/>
</g>
<defs>
<filter id="filter0_d_119_27" x="0" y="0" width="44" height="41" filterUnits="userSpaceOnUse" color-interpolation-filters="sRGB">
<feFlood flood-opacity="0" result="BackgroundImageFix"/>
<feColorMatrix in="SourceAlpha" type="matrix" values="0 0 0 0 0 0 0 0 0 0 0 0 0 0 0 0 0 0 127 0" result="hardAlpha"/>
<feOffset dy="4"/>
<feGaussianBlur stdDeviation="2"/>
<feComposite in2="hardAlpha" operator="out"/>
<feColorMatrix type="matrix" values="0 0 0 0 0 0 0 0 0 0 0 0 0 0 0 0 0 0 0.25 0"/>
<feBlend mode="normal" in2="BackgroundImageFix" result="effect1_dropShadow_119_27"/>
<feBlend mode="normal" in="SourceGraphic" in2="effect1_dropShadow_119_27" result="shape"/>
</filter>
</defs>
</svg>
